# MagicaVoxel @ Ephtracy

# group
o 

# material
mtllib House Interior Rooms - Free Sample-13.mtl
usemtl palette

# normals
vn -1 0 0
vn 1 0 0
vn 0 0 1
vn 0 0 -1
vn 0 -1 0
vn 0 1 0

# texcoords
vt 0.0136719 0.5
vt 0.0175781 0.5
vt 0.0253906 0.5
vt 0.0605469 0.5
vt 0.224609 0.5
vt 0.408203 0.5
vt 0.857422 0.5

# verts
v -0.18 0.34 -0.74
v -0.18 0.34 -0.76
v -0.18 0.48 -0.74
v -0.18 0.48 -0.76
v -0.16 0.36 -0.76
v -0.16 0.36 -0.78
v -0.16 0.46 -0.76
v -0.16 0.46 -0.78
v -0.14 0.34 -0.8
v -0.14 0.34 -0.82
v -0.14 0.4 -0.78
v -0.14 0.4 -0.8
v -0.14 0.4 -0.82
v -0.14 0.44 -0.78
v -0.14 0.44 -0.8
v -0.1 0.34 -0.8
v -0.1 0.34 -0.82
v -0.1 0.4 -0.78
v -0.1 0.4 -0.8
v -0.1 0.4 -0.82
v -0.1 0.44 -0.78
v -0.1 0.44 -0.8
v -0.08 0.36 -0.76
v -0.08 0.36 -0.78
v -0.08 0.46 -0.76
v -0.08 0.46 -0.78
v -0.06 0.34 -0.74
v -0.06 0.34 -0.76
v -0.06 0.48 -0.74
v -0.06 0.48 -0.76
v -0.18 0.34 -0.74
v -0.18 0.48 -0.74
v -0.16 0.36 -0.74
v -0.16 0.38 -0.74
v -0.16 0.4 -0.74
v -0.16 0.42 -0.74
v -0.16 0.46 -0.74
v -0.14 0.36 -0.74
v -0.14 0.38 -0.74
v -0.14 0.4 -0.74
v -0.14 0.42 -0.74
v -0.14 0.44 -0.74
v -0.14 0.46 -0.74
v -0.12 0.42 -0.74
v -0.12 0.44 -0.74
v -0.12 0.46 -0.74
v -0.1 0.36 -0.74
v -0.1 0.38 -0.74
v -0.1 0.4 -0.74
v -0.1 0.42 -0.74
v -0.1 0.44 -0.74
v -0.1 0.46 -0.74
v -0.08 0.36 -0.74
v -0.08 0.38 -0.74
v -0.08 0.4 -0.74
v -0.08 0.46 -0.74
v -0.06 0.34 -0.74
v -0.06 0.48 -0.74
v -0.14 0.34 -0.8
v -0.14 0.4 -0.8
v -0.1 0.34 -0.8
v -0.1 0.4 -0.8
v -0.18 0.34 -0.76
v -0.18 0.48 -0.76
v -0.16 0.36 -0.76
v -0.16 0.46 -0.76
v -0.08 0.36 -0.76
v -0.08 0.46 -0.76
v -0.06 0.34 -0.76
v -0.06 0.48 -0.76
v -0.16 0.36 -0.78
v -0.16 0.46 -0.78
v -0.14 0.4 -0.78
v -0.14 0.44 -0.78
v -0.1 0.4 -0.78
v -0.1 0.44 -0.78
v -0.08 0.36 -0.78
v -0.08 0.46 -0.78
v -0.14 0.4 -0.8
v -0.14 0.44 -0.8
v -0.1 0.4 -0.8
v -0.1 0.44 -0.8
v -0.14 0.34 -0.82
v -0.14 0.4 -0.82
v -0.1 0.34 -0.82
v -0.1 0.4 -0.82
v -0.18 0.34 -0.74
v -0.06 0.34 -0.74
v -0.18 0.34 -0.76
v -0.06 0.34 -0.76
v -0.14 0.34 -0.8
v -0.1 0.34 -0.8
v -0.14 0.34 -0.82
v -0.1 0.34 -0.82
v -0.16 0.36 -0.76
v -0.08 0.36 -0.76
v -0.16 0.36 -0.78
v -0.08 0.36 -0.78
v -0.14 0.4 -0.78
v -0.1 0.4 -0.78
v -0.14 0.4 -0.8
v -0.1 0.4 -0.8
v -0.14 0.4 -0.8
v -0.1 0.4 -0.8
v -0.14 0.4 -0.82
v -0.1 0.4 -0.82
v -0.14 0.44 -0.78
v -0.1 0.44 -0.78
v -0.14 0.44 -0.8
v -0.1 0.44 -0.8
v -0.16 0.46 -0.76
v -0.08 0.46 -0.76
v -0.16 0.46 -0.78
v -0.08 0.46 -0.78
v -0.18 0.48 -0.74
v -0.06 0.48 -0.74
v -0.18 0.48 -0.76
v -0.06 0.48 -0.76

# faces
f 3/4/1 2/4/1 1/4/1
f 4/4/1 2/4/1 3/4/1
f 7/4/1 6/4/1 5/4/1
f 8/4/1 6/4/1 7/4/1
f 12/4/1 10/4/1 9/4/1
f 13/4/1 10/4/1 12/4/1
f 14/4/1 12/4/1 11/4/1
f 15/4/1 12/4/1 14/4/1
f 16/4/2 17/4/2 19/4/2
f 19/4/2 17/4/2 20/4/2
f 18/4/2 19/4/2 21/4/2
f 21/4/2 19/4/2 22/4/2
f 23/4/2 24/4/2 25/4/2
f 25/4/2 24/4/2 26/4/2
f 27/4/2 28/4/2 29/4/2
f 29/4/2 28/4/2 30/4/2
f 33/4/3 32/4/3 31/4/3
f 34/4/3 32/4/3 33/4/3
f 35/4/3 32/4/3 34/4/3
f 36/4/3 32/4/3 35/4/3
f 37/4/3 32/4/3 36/4/3
f 38/4/3 33/4/3 31/4/3
f 38/7/3 34/7/3 33/7/3
f 39/3/3 35/3/3 34/3/3
f 39/7/3 34/7/3 38/7/3
f 40/5/3 36/5/3 35/5/3
f 40/3/3 35/3/3 39/3/3
f 41/7/3 37/7/3 36/7/3
f 41/5/3 36/5/3 40/5/3
f 42/7/3 37/7/3 41/7/3
f 43/4/3 32/4/3 37/4/3
f 43/7/3 37/7/3 42/7/3
f 44/2/3 42/2/3 41/2/3
f 44/6/3 40/6/3 39/6/3
f 44/6/3 39/6/3 38/6/3
f 44/6/3 41/6/3 40/6/3
f 45/1/3 43/1/3 42/1/3
f 45/2/3 42/2/3 44/2/3
f 46/4/3 32/4/3 43/4/3
f 46/1/3 43/1/3 45/1/3
f 47/6/3 44/6/3 38/6/3
f 47/4/3 38/4/3 31/4/3
f 48/6/3 44/6/3 47/6/3
f 49/6/3 44/6/3 48/6/3
f 50/1/3 45/1/3 44/1/3
f 50/6/3 44/6/3 49/6/3
f 51/2/3 46/2/3 45/2/3
f 51/1/3 45/1/3 50/1/3
f 52/4/3 32/4/3 46/4/3
f 52/2/3 46/2/3 51/2/3
f 53/4/3 47/4/3 31/4/3
f 53/7/3 48/7/3 47/7/3
f 54/6/3 49/6/3 48/6/3
f 54/7/3 48/7/3 53/7/3
f 55/7/3 51/7/3 50/7/3
f 55/6/3 49/6/3 54/6/3
f 55/7/3 50/7/3 49/7/3
f 55/7/3 52/7/3 51/7/3
f 56/4/3 32/4/3 52/4/3
f 56/7/3 52/7/3 55/7/3
f 57/4/3 53/4/3 31/4/3
f 57/4/3 54/4/3 53/4/3
f 57/4/3 56/4/3 55/4/3
f 57/4/3 55/4/3 54/4/3
f 58/4/3 32/4/3 56/4/3
f 58/4/3 56/4/3 57/4/3
f 61/4/3 60/4/3 59/4/3
f 62/4/3 60/4/3 61/4/3
f 63/4/4 64/4/4 65/4/4
f 65/4/4 64/4/4 66/4/4
f 63/4/4 65/4/4 67/4/4
f 66/4/4 64/4/4 68/4/4
f 63/4/4 67/4/4 69/4/4
f 67/4/4 68/4/4 69/4/4
f 68/4/4 64/4/4 70/4/4
f 69/4/4 68/4/4 70/4/4
f 71/4/4 72/4/4 73/4/4
f 73/4/4 72/4/4 74/4/4
f 71/4/4 73/4/4 75/4/4
f 74/4/4 72/4/4 76/4/4
f 71/4/4 75/4/4 77/4/4
f 75/4/4 76/4/4 77/4/4
f 76/4/4 72/4/4 78/4/4
f 77/4/4 76/4/4 78/4/4
f 79/4/4 80/4/4 81/4/4
f 81/4/4 80/4/4 82/4/4
f 83/4/4 84/4/4 85/4/4
f 85/4/4 84/4/4 86/4/4
f 89/4/5 88/4/5 87/4/5
f 90/4/5 88/4/5 89/4/5
f 93/4/5 92/4/5 91/4/5
f 94/4/5 92/4/5 93/4/5
f 97/4/5 96/4/5 95/4/5
f 98/4/5 96/4/5 97/4/5
f 101/4/5 100/4/5 99/4/5
f 102/4/5 100/4/5 101/4/5
f 103/4/6 104/4/6 105/4/6
f 105/4/6 104/4/6 106/4/6
f 107/4/6 108/4/6 109/4/6
f 109/4/6 108/4/6 110/4/6
f 111/4/6 112/4/6 113/4/6
f 113/4/6 112/4/6 114/4/6
f 115/4/6 116/4/6 117/4/6
f 117/4/6 116/4/6 118/4/6
