# MagicaVoxel @ Ephtracy

# group
o 

# material
mtllib House Interior Rooms - Free Sample-7.mtl
usemtl palette

# normals
vn 0 0 -1
vn 0 0 1
vn -1 0 0
vn 1 0 0
vn 0 -1 0
vn 0 1 0

# texcoords
vt 0.134766 0.5
vt 0.333984 0.5
vt 0.681641 0.5
vt 0.857422 0.5

# verts
v -0.76 0.4 -0.42
v -0.66 0.4 -0.42
v -0.74 0.42 -0.42
v -0.68 0.42 -0.42
v -0.74 0.54 -0.42
v -0.68 0.54 -0.42
v -0.76 0.56 -0.42
v -0.66 0.56 -0.42
v -0.74 0.32 -0.4
v -0.68 0.32 -0.4
v -0.74 0.34 -0.4
v -0.68 0.34 -0.4
v -0.72 0.34 -0.38
v -0.7 0.34 -0.38
v -0.72 0.4 -0.38
v -0.7 0.4 -0.38
v -0.72 0.42 -0.38
v -0.7 0.42 -0.38
v -0.74 0.4 -0.34
v -0.68 0.4 -0.34
v -0.74 0.42 -0.34
v -0.68 0.42 -0.34
v -0.74 0.48 -0.34
v -0.68 0.48 -0.34
v -0.74 0.5 -0.34
v -0.68 0.5 -0.34
v -0.74 0.54 -0.34
v -0.68 0.54 -0.34
v -0.74 0.4 -0.4
v -0.68 0.4 -0.4
v -0.74 0.42 -0.4
v -0.68 0.42 -0.4
v -0.74 0.48 -0.4
v -0.68 0.48 -0.4
v -0.74 0.5 -0.4
v -0.68 0.5 -0.4
v -0.74 0.54 -0.4
v -0.68 0.54 -0.4
v -0.72 0.34 -0.36
v -0.7 0.34 -0.36
v -0.72 0.4 -0.36
v -0.7 0.4 -0.36
v -0.72 0.42 -0.36
v -0.7 0.42 -0.36
v -0.74 0.32 -0.34
v -0.68 0.32 -0.34
v -0.74 0.34 -0.34
v -0.68 0.34 -0.34
v -0.76 0.4 -0.32
v -0.66 0.4 -0.32
v -0.74 0.42 -0.32
v -0.68 0.42 -0.32
v -0.74 0.54 -0.32
v -0.68 0.54 -0.32
v -0.76 0.56 -0.32
v -0.66 0.56 -0.32
v -0.76 0.4 -0.42
v -0.76 0.56 -0.42
v -0.76 0.42 -0.4
v -0.76 0.54 -0.4
v -0.76 0.42 -0.34
v -0.76 0.54 -0.34
v -0.76 0.4 -0.32
v -0.76 0.56 -0.32
v -0.74 0.32 -0.4
v -0.74 0.34 -0.4
v -0.74 0.32 -0.34
v -0.74 0.34 -0.34
v -0.72 0.34 -0.38
v -0.72 0.4 -0.38
v -0.72 0.42 -0.38
v -0.72 0.34 -0.36
v -0.72 0.4 -0.36
v -0.72 0.42 -0.36
v -0.68 0.4 -0.4
v -0.68 0.42 -0.4
v -0.68 0.48 -0.4
v -0.68 0.5 -0.4
v -0.68 0.54 -0.4
v -0.68 0.4 -0.34
v -0.68 0.42 -0.34
v -0.68 0.48 -0.34
v -0.68 0.5 -0.34
v -0.68 0.54 -0.34
v -0.74 0.4 -0.4
v -0.74 0.42 -0.4
v -0.74 0.48 -0.4
v -0.74 0.5 -0.4
v -0.74 0.54 -0.4
v -0.74 0.4 -0.34
v -0.74 0.42 -0.34
v -0.74 0.48 -0.34
v -0.74 0.5 -0.34
v -0.74 0.54 -0.34
v -0.7 0.34 -0.38
v -0.7 0.4 -0.38
v -0.7 0.42 -0.38
v -0.7 0.34 -0.36
v -0.7 0.4 -0.36
v -0.7 0.42 -0.36
v -0.68 0.32 -0.4
v -0.68 0.34 -0.4
v -0.68 0.32 -0.34
v -0.68 0.34 -0.34
v -0.66 0.4 -0.42
v -0.66 0.56 -0.42
v -0.66 0.42 -0.4
v -0.66 0.54 -0.4
v -0.66 0.42 -0.34
v -0.66 0.54 -0.34
v -0.66 0.4 -0.32
v -0.66 0.56 -0.32
v -0.74 0.32 -0.4
v -0.74 0.32 -0.34
v -0.68 0.32 -0.4
v -0.68 0.32 -0.34
v -0.76 0.4 -0.42
v -0.76 0.4 -0.32
v -0.74 0.4 -0.4
v -0.74 0.4 -0.34
v -0.68 0.4 -0.4
v -0.68 0.4 -0.34
v -0.66 0.4 -0.42
v -0.66 0.4 -0.32
v -0.74 0.48 -0.4
v -0.74 0.48 -0.34
v -0.68 0.48 -0.4
v -0.68 0.48 -0.34
v -0.74 0.54 -0.4
v -0.74 0.54 -0.34
v -0.68 0.54 -0.4
v -0.68 0.54 -0.34
v -0.74 0.34 -0.4
v -0.74 0.34 -0.34
v -0.72 0.34 -0.38
v -0.72 0.34 -0.36
v -0.7 0.34 -0.38
v -0.7 0.34 -0.36
v -0.68 0.34 -0.4
v -0.68 0.34 -0.34
v -0.72 0.42 -0.38
v -0.72 0.42 -0.36
v -0.7 0.42 -0.38
v -0.7 0.42 -0.36
v -0.74 0.5 -0.4
v -0.74 0.5 -0.34
v -0.68 0.5 -0.4
v -0.68 0.5 -0.34
v -0.76 0.56 -0.42
v -0.76 0.56 -0.32
v -0.74 0.56 -0.4
v -0.74 0.56 -0.34
v -0.68 0.56 -0.4
v -0.68 0.56 -0.34
v -0.66 0.56 -0.42
v -0.66 0.56 -0.32

# faces
f 3/1/1 2/1/1 1/1/1
f 4/1/1 2/1/1 3/1/1
f 5/1/1 3/1/1 1/1/1
f 5/3/1 4/3/1 3/3/1
f 6/1/1 2/1/1 4/1/1
f 6/3/1 4/3/1 5/3/1
f 7/1/1 5/1/1 1/1/1
f 7/1/1 6/1/1 5/1/1
f 8/1/1 2/1/1 6/1/1
f 8/1/1 6/1/1 7/1/1
f 11/4/1 10/4/1 9/4/1
f 12/4/1 10/4/1 11/4/1
f 15/4/1 14/4/1 13/4/1
f 16/4/1 14/4/1 15/4/1
f 17/2/1 16/2/1 15/2/1
f 18/2/1 16/2/1 17/2/1
f 21/1/1 20/1/1 19/1/1
f 22/1/1 20/1/1 21/1/1
f 23/3/1 22/3/1 21/3/1
f 24/3/1 22/3/1 23/3/1
f 27/3/1 26/3/1 25/3/1
f 28/3/1 26/3/1 27/3/1
f 29/1/2 30/1/2 31/1/2
f 31/1/2 30/1/2 32/1/2
f 31/3/2 32/3/2 33/3/2
f 33/3/2 32/3/2 34/3/2
f 35/3/2 36/3/2 37/3/2
f 37/3/2 36/3/2 38/3/2
f 39/4/2 40/4/2 41/4/2
f 41/4/2 40/4/2 42/4/2
f 41/2/2 42/2/2 43/2/2
f 43/2/2 42/2/2 44/2/2
f 45/4/2 46/4/2 47/4/2
f 47/4/2 46/4/2 48/4/2
f 49/1/2 50/1/2 51/1/2
f 51/1/2 50/1/2 52/1/2
f 49/1/2 51/1/2 53/1/2
f 51/3/2 52/3/2 53/3/2
f 52/1/2 50/1/2 54/1/2
f 53/3/2 52/3/2 54/3/2
f 49/1/2 53/1/2 55/1/2
f 53/1/2 54/1/2 55/1/2
f 54/1/2 50/1/2 56/1/2
f 55/1/2 54/1/2 56/1/2
f 59/1/3 58/1/3 57/1/3
f 60/1/3 58/1/3 59/1/3
f 61/1/3 59/1/3 57/1/3
f 61/3/3 60/3/3 59/3/3
f 62/1/3 58/1/3 60/1/3
f 62/3/3 60/3/3 61/3/3
f 63/1/3 61/1/3 57/1/3
f 63/1/3 62/1/3 61/1/3
f 64/1/3 58/1/3 62/1/3
f 64/1/3 62/1/3 63/1/3
f 67/4/3 66/4/3 65/4/3
f 68/4/3 66/4/3 67/4/3
f 72/4/3 70/4/3 69/4/3
f 73/2/3 71/2/3 70/2/3
f 73/4/3 70/4/3 72/4/3
f 74/2/3 71/2/3 73/2/3
f 80/1/3 76/1/3 75/1/3
f 81/3/3 77/3/3 76/3/3
f 81/1/3 76/1/3 80/1/3
f 82/3/3 77/3/3 81/3/3
f 83/3/3 79/3/3 78/3/3
f 84/3/3 79/3/3 83/3/3
f 85/1/4 86/1/4 90/1/4
f 86/3/4 87/3/4 91/3/4
f 90/1/4 86/1/4 91/1/4
f 91/3/4 87/3/4 92/3/4
f 88/3/4 89/3/4 93/3/4
f 93/3/4 89/3/4 94/3/4
f 95/4/4 96/4/4 98/4/4
f 96/2/4 97/2/4 99/2/4
f 98/4/4 96/4/4 99/4/4
f 99/2/4 97/2/4 100/2/4
f 101/4/4 102/4/4 103/4/4
f 103/4/4 102/4/4 104/4/4
f 105/1/4 106/1/4 107/1/4
f 107/1/4 106/1/4 108/1/4
f 105/1/4 107/1/4 109/1/4
f 107/3/4 108/3/4 109/3/4
f 108/1/4 106/1/4 110/1/4
f 109/3/4 108/3/4 110/3/4
f 105/1/4 109/1/4 111/1/4
f 109/1/4 110/1/4 111/1/4
f 110/1/4 106/1/4 112/1/4
f 111/1/4 110/1/4 112/1/4
f 115/4/5 114/4/5 113/4/5
f 116/4/5 114/4/5 115/4/5
f 119/1/5 118/1/5 117/1/5
f 120/1/5 118/1/5 119/1/5
f 121/1/5 119/1/5 117/1/5
f 122/1/5 118/1/5 120/1/5
f 123/1/5 121/1/5 117/1/5
f 123/1/5 122/1/5 121/1/5
f 124/1/5 118/1/5 122/1/5
f 124/1/5 122/1/5 123/1/5
f 127/3/5 126/3/5 125/3/5
f 128/3/5 126/3/5 127/3/5
f 131/3/5 130/3/5 129/3/5
f 132/3/5 130/3/5 131/3/5
f 133/4/6 134/4/6 135/4/6
f 135/4/6 134/4/6 136/4/6
f 133/4/6 135/4/6 137/4/6
f 136/4/6 134/4/6 138/4/6
f 133/4/6 137/4/6 139/4/6
f 137/4/6 138/4/6 139/4/6
f 138/4/6 134/4/6 140/4/6
f 139/4/6 138/4/6 140/4/6
f 141/2/6 142/2/6 143/2/6
f 143/2/6 142/2/6 144/2/6
f 145/3/6 146/3/6 147/3/6
f 147/3/6 146/3/6 148/3/6
f 149/1/6 150/1/6 151/1/6
f 151/1/6 150/1/6 152/1/6
f 149/1/6 151/1/6 153/1/6
f 151/3/6 152/3/6 153/3/6
f 152/1/6 150/1/6 154/1/6
f 153/3/6 152/3/6 154/3/6
f 149/1/6 153/1/6 155/1/6
f 153/1/6 154/1/6 155/1/6
f 154/1/6 150/1/6 156/1/6
f 155/1/6 154/1/6 156/1/6
