# MagicaVoxel @ Ephtracy

# group
o 

# material
mtllib House Interior Rooms - Free Sample-8.mtl
usemtl palette

# normals
vn 0 0 -1
vn 0 0 1
vn 1 0 0
vn -1 0 0
vn 0 -1 0
vn 0 1 0

# texcoords
vt 0.419922 0.5
vt 0.423828 0.5
vt 0.427734 0.5
vt 0.431641 0.5
vt 0.435547 0.5
vt 0.533203 0.5

# verts
v -0.62 0.1 -0.44
v -0.66 0.1 -0.44
v -0.76 0.1 -0.44
v -0.8 0.1 -0.44
v -0.62 0.12 -0.44
v -0.66 0.12 -0.44
v -0.76 0.12 -0.44
v -0.8 0.12 -0.44
v -0.66 0.18 -0.44
v -0.7 0.18 -0.44
v -0.74 0.18 -0.44
v -0.76 0.18 -0.44
v -0.7 0.2 -0.44
v -0.74 0.2 -0.44
v -0.64 0.22 -0.44
v -0.66 0.22 -0.44
v -0.76 0.22 -0.44
v -0.78 0.22 -0.44
v -0.64 0.24 -0.44
v -0.66 0.24 -0.44
v -0.72 0.24 -0.44
v -0.76 0.24 -0.44
v -0.78 0.24 -0.44
v -0.66 0.26 -0.44
v -0.72 0.26 -0.44
v -0.74 0.26 -0.44
v -0.78 0.26 -0.44
v -0.62 0.28 -0.44
v -0.64 0.28 -0.44
v -0.74 0.28 -0.44
v -0.78 0.28 -0.44
v -0.62 0.3 -0.44
v -0.64 0.3 -0.44
v -0.7 0.3 -0.44
v -0.76 0.3 -0.44
v -0.78 0.3 -0.44
v -0.8 0.3 -0.44
v -0.62 0.32 -0.44
v -0.64 0.32 -0.44
v -0.7 0.32 -0.44
v -0.76 0.32 -0.44
v -0.78 0.32 -0.44
v -0.8 0.32 -0.44
v -0.62 0.1 -0.32
v -0.66 0.1 -0.32
v -0.76 0.1 -0.32
v -0.8 0.1 -0.32
v -0.62 0.12 -0.32
v -0.66 0.12 -0.32
v -0.76 0.12 -0.32
v -0.8 0.12 -0.32
v -0.62 0.18 -0.32
v -0.66 0.18 -0.32
v -0.76 0.18 -0.32
v -0.8 0.18 -0.32
v -0.62 0.1 -0.4
v -0.66 0.1 -0.4
v -0.76 0.1 -0.4
v -0.8 0.1 -0.4
v -0.62 0.12 -0.4
v -0.66 0.12 -0.4
v -0.76 0.12 -0.4
v -0.8 0.12 -0.4
v -0.62 0.18 -0.4
v -0.66 0.18 -0.4
v -0.76 0.18 -0.4
v -0.8 0.18 -0.4
v -0.62 0.1 -0.28
v -0.66 0.1 -0.28
v -0.76 0.1 -0.28
v -0.8 0.1 -0.28
v -0.62 0.12 -0.28
v -0.66 0.12 -0.28
v -0.76 0.12 -0.28
v -0.8 0.12 -0.28
v -0.66 0.18 -0.28
v -0.76 0.18 -0.28
v -0.64 0.2 -0.28
v -0.78 0.2 -0.28
v -0.64 0.22 -0.28
v -0.66 0.22 -0.28
v -0.76 0.22 -0.28
v -0.78 0.22 -0.28
v -0.64 0.24 -0.28
v -0.66 0.24 -0.28
v -0.7 0.24 -0.28
v -0.72 0.24 -0.28
v -0.76 0.24 -0.28
v -0.78 0.24 -0.28
v -0.62 0.26 -0.28
v -0.64 0.26 -0.28
v -0.66 0.26 -0.28
v -0.7 0.26 -0.28
v -0.72 0.26 -0.28
v -0.76 0.26 -0.28
v -0.78 0.26 -0.28
v -0.62 0.28 -0.28
v -0.64 0.28 -0.28
v -0.66 0.28 -0.28
v -0.76 0.28 -0.28
v -0.78 0.28 -0.28
v -0.62 0.3 -0.28
v -0.64 0.3 -0.28
v -0.66 0.3 -0.28
v -0.68 0.3 -0.28
v -0.78 0.3 -0.28
v -0.8 0.3 -0.28
v -0.62 0.32 -0.28
v -0.64 0.32 -0.28
v -0.66 0.32 -0.28
v -0.68 0.32 -0.28
v -0.78 0.32 -0.28
v -0.8 0.32 -0.28
v -0.7 0.24 -0.26
v -0.72 0.24 -0.26
v -0.7 0.26 -0.26
v -0.72 0.26 -0.26
v -0.62 0.1 -0.44
v -0.62 0.12 -0.44
v -0.62 0.28 -0.44
v -0.62 0.3 -0.44
v -0.62 0.32 -0.44
v -0.62 0.18 -0.42
v -0.62 0.2 -0.42
v -0.62 0.24 -0.42
v -0.62 0.26 -0.42
v -0.62 0.3 -0.42
v -0.62 0.32 -0.42
v -0.62 0.1 -0.4
v -0.62 0.12 -0.4
v -0.62 0.18 -0.4
v -0.62 0.2 -0.4
v -0.62 0.28 -0.4
v -0.62 0.3 -0.4
v -0.62 0.22 -0.38
v -0.62 0.24 -0.38
v -0.62 0.3 -0.38
v -0.62 0.32 -0.38
v -0.62 0.24 -0.36
v -0.62 0.26 -0.36
v -0.62 0.1 -0.32
v -0.62 0.12 -0.32
v -0.62 0.18 -0.32
v -0.62 0.3 -0.32
v -0.62 0.32 -0.32
v -0.62 0.22 -0.3
v -0.62 0.24 -0.3
v -0.62 0.26 -0.3
v -0.62 0.28 -0.3
v -0.62 0.3 -0.3
v -0.62 0.32 -0.3
v -0.62 0.1 -0.28
v -0.62 0.12 -0.28
v -0.62 0.26 -0.28
v -0.62 0.28 -0.28
v -0.62 0.3 -0.28
v -0.62 0.32 -0.28
v -0.7 0.24 -0.28
v -0.7 0.26 -0.28
v -0.7 0.24 -0.26
v -0.7 0.26 -0.26
v -0.76 0.1 -0.44
v -0.76 0.12 -0.44
v -0.76 0.18 -0.44
v -0.76 0.1 -0.4
v -0.76 0.12 -0.4
v -0.76 0.18 -0.4
v -0.76 0.1 -0.32
v -0.76 0.12 -0.32
v -0.76 0.18 -0.32
v -0.76 0.1 -0.28
v -0.76 0.12 -0.28
v -0.76 0.18 -0.28
v -0.66 0.1 -0.44
v -0.66 0.12 -0.44
v -0.66 0.18 -0.44
v -0.66 0.1 -0.4
v -0.66 0.12 -0.4
v -0.66 0.18 -0.4
v -0.66 0.1 -0.32
v -0.66 0.12 -0.32
v -0.66 0.18 -0.32
v -0.66 0.1 -0.28
v -0.66 0.12 -0.28
v -0.66 0.18 -0.28
v -0.72 0.24 -0.28
v -0.72 0.26 -0.28
v -0.72 0.24 -0.26
v -0.72 0.26 -0.26
v -0.8 0.1 -0.44
v -0.8 0.12 -0.44
v -0.8 0.3 -0.44
v -0.8 0.32 -0.44
v -0.8 0.22 -0.42
v -0.8 0.24 -0.42
v -0.8 0.3 -0.42
v -0.8 0.32 -0.42
v -0.8 0.1 -0.4
v -0.8 0.12 -0.4
v -0.8 0.18 -0.4
v -0.8 0.24 -0.38
v -0.8 0.26 -0.38
v -0.8 0.3 -0.38
v -0.8 0.32 -0.38
v -0.8 0.22 -0.34
v -0.8 0.24 -0.34
v -0.8 0.3 -0.34
v -0.8 0.32 -0.34
v -0.8 0.1 -0.32
v -0.8 0.12 -0.32
v -0.8 0.18 -0.32
v -0.8 0.24 -0.32
v -0.8 0.26 -0.32
v -0.8 0.3 -0.3
v -0.8 0.32 -0.3
v -0.8 0.1 -0.28
v -0.8 0.12 -0.28
v -0.8 0.3 -0.28
v -0.8 0.32 -0.28
v -0.62 0.1 -0.44
v -0.62 0.1 -0.4
v -0.62 0.1 -0.32
v -0.62 0.1 -0.28
v -0.66 0.1 -0.44
v -0.66 0.1 -0.4
v -0.66 0.1 -0.32
v -0.66 0.1 -0.28
v -0.76 0.1 -0.44
v -0.76 0.1 -0.4
v -0.76 0.1 -0.32
v -0.76 0.1 -0.28
v -0.8 0.1 -0.44
v -0.8 0.1 -0.4
v -0.8 0.1 -0.32
v -0.8 0.1 -0.28
v -0.62 0.18 -0.4
v -0.62 0.18 -0.32
v -0.66 0.18 -0.44
v -0.66 0.18 -0.4
v -0.66 0.18 -0.32
v -0.66 0.18 -0.28
v -0.7 0.18 -0.44
v -0.7 0.18 -0.42
v -0.74 0.18 -0.44
v -0.74 0.18 -0.42
v -0.76 0.18 -0.44
v -0.76 0.18 -0.4
v -0.76 0.18 -0.32
v -0.76 0.18 -0.28
v -0.8 0.18 -0.4
v -0.8 0.18 -0.32
v -0.7 0.24 -0.28
v -0.7 0.24 -0.26
v -0.72 0.24 -0.28
v -0.72 0.24 -0.26
v -0.7 0.26 -0.28
v -0.7 0.26 -0.26
v -0.72 0.26 -0.28
v -0.72 0.26 -0.26
v -0.62 0.32 -0.44
v -0.62 0.32 -0.42
v -0.62 0.32 -0.38
v -0.62 0.32 -0.32
v -0.62 0.32 -0.3
v -0.62 0.32 -0.28
v -0.64 0.32 -0.44
v -0.64 0.32 -0.42
v -0.64 0.32 -0.4
v -0.64 0.32 -0.36
v -0.64 0.32 -0.34
v -0.64 0.32 -0.32
v -0.64 0.32 -0.3
v -0.64 0.32 -0.28
v -0.66 0.32 -0.42
v -0.66 0.32 -0.4
v -0.66 0.32 -0.3
v -0.66 0.32 -0.28
v -0.68 0.32 -0.3
v -0.68 0.32 -0.28
v -0.7 0.32 -0.44
v -0.7 0.32 -0.42
v -0.7 0.32 -0.38
v -0.7 0.32 -0.36
v -0.7 0.32 -0.34
v -0.7 0.32 -0.32
v -0.72 0.32 -0.4
v -0.72 0.32 -0.38
v -0.74 0.32 -0.32
v -0.74 0.32 -0.3
v -0.76 0.32 -0.44
v -0.76 0.32 -0.42
v -0.76 0.32 -0.4
v -0.76 0.32 -0.38
v -0.76 0.32 -0.34
v -0.76 0.32 -0.32
v -0.78 0.32 -0.44
v -0.78 0.32 -0.42
v -0.78 0.32 -0.4
v -0.78 0.32 -0.38
v -0.78 0.32 -0.36
v -0.78 0.32 -0.34
v -0.78 0.32 -0.32
v -0.78 0.32 -0.3
v -0.78 0.32 -0.28
v -0.8 0.32 -0.44
v -0.8 0.32 -0.42
v -0.8 0.32 -0.38
v -0.8 0.32 -0.34
v -0.8 0.32 -0.3
v -0.8 0.32 -0.28

# faces
f 1/1/1 2/1/1 5/1/1
f 5/1/1 2/1/1 6/1/1
f 3/1/1 4/1/1 7/1/1
f 7/1/1 4/1/1 8/1/1
f 5/2/1 6/2/1 9/2/1
f 7/2/1 8/2/1 12/2/1
f 10/1/1 11/1/1 13/1/1
f 9/2/1 10/2/1 13/2/1
f 11/2/1 12/2/1 14/2/1
f 13/1/1 11/1/1 14/1/1
f 9/2/1 13/2/1 15/2/1
f 5/2/1 9/2/1 15/2/1
f 13/2/1 14/2/1 15/2/1
f 15/2/1 14/2/1 16/2/1
f 14/2/1 12/2/1 17/2/1
f 16/2/1 14/2/1 17/2/1
f 12/2/1 8/2/1 17/2/1
f 17/2/1 8/2/1 18/2/1
f 15/1/1 16/1/1 19/1/1
f 5/2/1 15/2/1 19/2/1
f 16/2/1 17/2/1 20/2/1
f 19/1/1 16/1/1 20/1/1
f 20/2/1 17/2/1 21/2/1
f 17/1/1 18/1/1 22/1/1
f 21/2/1 17/2/1 22/2/1
f 18/2/1 8/2/1 23/2/1
f 22/1/1 18/1/1 23/1/1
f 20/1/1 21/1/1 24/1/1
f 19/2/1 20/2/1 24/2/1
f 21/2/1 22/2/1 25/2/1
f 24/1/1 21/1/1 25/1/1
f 22/2/1 23/2/1 25/2/1
f 25/2/1 23/2/1 26/2/1
f 23/2/1 8/2/1 27/2/1
f 26/2/1 23/2/1 27/2/1
f 19/2/1 24/2/1 28/2/1
f 25/2/1 26/2/1 28/2/1
f 5/2/1 19/2/1 28/2/1
f 24/2/1 25/2/1 28/2/1
f 28/2/1 26/2/1 29/2/1
f 26/1/1 27/1/1 30/1/1
f 29/2/1 26/2/1 30/2/1
f 27/2/1 8/2/1 31/2/1
f 30/1/1 27/1/1 31/1/1
f 28/1/1 29/1/1 32/1/1
f 29/2/1 30/2/1 33/2/1
f 32/1/1 29/1/1 33/1/1
f 30/2/1 31/2/1 33/2/1
f 33/2/1 31/2/1 34/2/1
f 34/2/1 31/2/1 35/2/1
f 31/2/1 8/2/1 36/2/1
f 35/2/1 31/2/1 36/2/1
f 36/2/1 8/2/1 37/2/1
f 32/3/1 33/3/1 38/3/1
f 33/4/1 34/4/1 39/4/1
f 38/3/1 33/3/1 39/3/1
f 34/3/1 35/3/1 40/3/1
f 39/4/1 34/4/1 40/4/1
f 35/4/1 36/4/1 41/4/1
f 40/3/1 35/3/1 41/3/1
f 36/3/1 37/3/1 42/3/1
f 41/4/1 36/4/1 42/4/1
f 42/3/1 37/3/1 43/3/1
f 44/1/1 45/1/1 48/1/1
f 48/1/1 45/1/1 49/1/1
f 46/1/1 47/1/1 50/1/1
f 50/1/1 47/1/1 51/1/1
f 48/2/1 49/2/1 52/2/1
f 52/2/1 49/2/1 53/2/1
f 50/2/1 51/2/1 54/2/1
f 54/2/1 51/2/1 55/2/1
f 60/1/2 57/1/2 56/1/2
f 61/1/2 57/1/2 60/1/2
f 62/1/2 59/1/2 58/1/2
f 63/1/2 59/1/2 62/1/2
f 64/2/2 61/2/2 60/2/2
f 65/2/2 61/2/2 64/2/2
f 66/2/2 63/2/2 62/2/2
f 67/2/2 63/2/2 66/2/2
f 72/1/2 69/1/2 68/1/2
f 73/1/2 69/1/2 72/1/2
f 74/1/2 71/1/2 70/1/2
f 75/1/2 71/1/2 74/1/2
f 76/2/2 73/2/2 72/2/2
f 77/2/2 75/2/2 74/2/2
f 78/2/2 76/2/2 72/2/2
f 78/2/2 77/2/2 76/2/2
f 79/2/2 75/2/2 77/2/2
f 79/2/2 77/2/2 78/2/2
f 80/2/2 78/2/2 72/2/2
f 80/1/2 79/1/2 78/1/2
f 81/1/2 79/1/2 80/1/2
f 82/1/2 79/1/2 81/1/2
f 83/2/2 75/2/2 79/2/2
f 83/1/2 79/1/2 82/1/2
f 84/2/2 80/2/2 72/2/2
f 84/3/2 81/3/2 80/3/2
f 85/5/2 82/5/2 81/5/2
f 85/3/2 81/3/2 84/3/2
f 86/5/2 82/5/2 85/5/2
f 87/5/2 82/5/2 86/5/2
f 88/3/2 83/3/2 82/3/2
f 88/5/2 82/5/2 87/5/2
f 89/2/2 75/2/2 83/2/2
f 89/3/2 83/3/2 88/3/2
f 90/2/2 84/2/2 72/2/2
f 91/5/2 85/5/2 84/5/2
f 91/2/2 84/2/2 90/2/2
f 91/5/2 86/5/2 85/5/2
f 92/5/2 86/5/2 91/5/2
f 93/5/2 86/5/2 92/5/2
f 94/5/2 88/5/2 87/5/2
f 94/5/2 89/5/2 88/5/2
f 95/5/2 89/5/2 94/5/2
f 96/2/2 75/2/2 89/2/2
f 96/5/2 89/5/2 95/5/2
f 97/1/2 91/1/2 90/1/2
f 98/3/2 92/3/2 91/3/2
f 98/1/2 91/1/2 97/1/2
f 99/5/2 95/5/2 94/5/2
f 99/3/2 92/3/2 98/3/2
f 99/5/2 93/5/2 92/5/2
f 99/5/2 94/5/2 93/5/2
f 100/3/2 96/3/2 95/3/2
f 100/5/2 95/5/2 99/5/2
f 101/2/2 75/2/2 96/2/2
f 101/3/2 96/3/2 100/3/2
f 102/2/2 98/2/2 97/2/2
f 102/2/2 99/2/2 98/2/2
f 102/2/2 101/2/2 100/2/2
f 102/2/2 100/2/2 99/2/2
f 103/2/2 101/2/2 102/2/2
f 104/2/2 101/2/2 103/2/2
f 105/2/2 101/2/2 104/2/2
f 106/2/2 75/2/2 101/2/2
f 106/2/2 101/2/2 105/2/2
f 107/2/2 75/2/2 106/2/2
f 108/3/2 103/3/2 102/3/2
f 109/4/2 104/4/2 103/4/2
f 109/3/2 103/3/2 108/3/2
f 110/3/2 105/3/2 104/3/2
f 110/4/2 104/4/2 109/4/2
f 111/4/2 106/4/2 105/4/2
f 111/3/2 105/3/2 110/3/2
f 112/3/2 107/3/2 106/3/2
f 112/4/2 106/4/2 111/4/2
f 113/3/2 107/3/2 112/3/2
f 116/2/2 115/2/2 114/2/2
f 117/2/2 115/2/2 116/2/2
f 119/2/3 120/2/3 123/2/3
f 123/2/3 120/2/3 124/2/3
f 124/2/3 120/2/3 125/2/3
f 125/2/3 120/2/3 126/2/3
f 121/3/3 122/3/3 127/3/3
f 120/1/3 121/1/3 127/1/3
f 127/3/3 122/3/3 128/3/3
f 118/1/3 119/1/3 129/1/3
f 119/2/3 123/2/3 130/2/3
f 129/1/3 119/1/3 130/1/3
f 123/1/3 124/1/3 131/1/3
f 130/2/3 123/2/3 131/2/3
f 124/2/3 125/2/3 132/2/3
f 131/1/3 124/1/3 132/1/3
f 126/2/3 120/2/3 133/2/3
f 120/1/3 127/1/3 133/1/3
f 127/4/3 128/4/3 134/4/3
f 133/1/3 127/1/3 134/1/3
f 132/2/3 125/2/3 135/2/3
f 131/2/3 132/2/3 135/2/3
f 125/1/3 126/1/3 136/1/3
f 135/2/3 125/2/3 136/2/3
f 134/4/3 128/4/3 137/4/3
f 133/2/3 134/2/3 137/2/3
f 137/4/3 128/4/3 138/4/3
f 136/1/3 126/1/3 139/1/3
f 135/1/3 136/1/3 139/1/3
f 126/2/3 133/2/3 140/2/3
f 139/1/3 126/1/3 140/1/3
f 133/2/3 137/2/3 140/2/3
f 131/2/3 135/2/3 143/2/3
f 137/3/3 138/3/3 144/3/3
f 139/2/3 140/2/3 144/2/3
f 140/2/3 137/2/3 144/2/3
f 144/3/3 138/3/3 145/3/3
f 142/2/3 143/2/3 146/2/3
f 135/1/3 139/1/3 146/1/3
f 143/2/3 135/2/3 146/2/3
f 139/2/3 144/2/3 147/2/3
f 146/1/3 139/1/3 147/1/3
f 147/2/3 144/2/3 148/2/3
f 148/2/3 144/2/3 149/2/3
f 144/4/3 145/4/3 150/4/3
f 149/2/3 144/2/3 150/2/3
f 150/4/3 145/4/3 151/4/3
f 141/1/3 142/1/3 152/1/3
f 142/2/3 146/2/3 153/2/3
f 152/1/3 142/1/3 153/1/3
f 146/2/3 147/2/3 153/2/3
f 147/2/3 148/2/3 153/2/3
f 148/1/3 149/1/3 154/1/3
f 153/2/3 148/2/3 154/2/3
f 149/2/3 150/2/3 155/2/3
f 154/1/3 149/1/3 155/1/3
f 150/3/3 151/3/3 156/3/3
f 155/2/3 150/2/3 156/2/3
f 156/3/3 151/3/3 157/3/3
f 158/2/3 159/2/3 160/2/3
f 160/2/3 159/2/3 161/2/3
f 162/1/3 163/1/3 165/1/3
f 163/2/3 164/2/3 166/2/3
f 165/1/3 163/1/3 166/1/3
f 166/2/3 164/2/3 167/2/3
f 168/1/3 169/1/3 171/1/3
f 169/2/3 170/2/3 172/2/3
f 171/1/3 169/1/3 172/1/3
f 172/2/3 170/2/3 173/2/3
f 177/1/4 175/1/4 174/1/4
f 178/2/4 176/2/4 175/2/4
f 178/1/4 175/1/4 177/1/4
f 179/2/4 176/2/4 178/2/4
f 183/1/4 181/1/4 180/1/4
f 184/2/4 182/2/4 181/2/4
f 184/1/4 181/1/4 183/1/4
f 185/2/4 182/2/4 184/2/4
f 188/2/4 187/2/4 186/2/4
f 189/2/4 187/2/4 188/2/4
f 194/2/4 192/2/4 191/2/4
f 195/2/4 192/2/4 194/2/4
f 196/3/4 193/3/4 192/3/4
f 196/2/4 192/2/4 195/2/4
f 197/3/4 193/3/4 196/3/4
f 198/1/4 191/1/4 190/1/4
f 199/2/4 194/2/4 191/2/4
f 199/1/4 191/1/4 198/1/4
f 200/2/4 194/2/4 199/2/4
f 201/1/4 195/1/4 194/1/4
f 201/2/4 196/2/4 195/2/4
f 202/2/4 196/2/4 201/2/4
f 203/4/4 197/4/4 196/4/4
f 203/2/4 196/2/4 202/2/4
f 204/4/4 197/4/4 203/4/4
f 205/2/4 194/2/4 200/2/4
f 205/1/4 202/1/4 201/1/4
f 205/1/4 201/1/4 194/1/4
f 206/1/4 202/1/4 205/1/4
f 207/3/4 204/3/4 203/3/4
f 207/2/4 203/2/4 202/2/4
f 208/3/4 204/3/4 207/3/4
f 211/2/4 206/2/4 205/2/4
f 211/2/4 205/2/4 200/2/4
f 212/1/4 202/1/4 206/1/4
f 212/2/4 206/2/4 211/2/4
f 213/2/4 207/2/4 202/2/4
f 213/1/4 202/1/4 212/1/4
f 214/2/4 211/2/4 210/2/4
f 214/2/4 207/2/4 213/2/4
f 214/2/4 213/2/4 212/2/4
f 214/2/4 212/2/4 211/2/4
f 214/4/4 208/4/4 207/4/4
f 215/4/4 208/4/4 214/4/4
f 216/1/4 210/1/4 209/1/4
f 217/2/4 214/2/4 210/2/4
f 217/1/4 210/1/4 216/1/4
f 218/3/4 215/3/4 214/3/4
f 218/2/4 214/2/4 217/2/4
f 219/3/4 215/3/4 218/3/4
f 220/1/5 221/1/5 224/1/5
f 224/1/5 221/1/5 225/1/5
f 222/1/5 223/1/5 226/1/5
f 226/1/5 223/1/5 227/1/5
f 228/1/5 229/1/5 232/1/5
f 232/1/5 229/1/5 233/1/5
f 230/1/5 231/1/5 234/1/5
f 234/1/5 231/1/5 235/1/5
f 236/2/5 237/2/5 239/2/5
f 239/2/5 237/2/5 240/2/5
f 238/2/5 239/2/5 242/2/5
f 240/2/5 241/2/5 242/2/5
f 239/2/5 240/2/5 242/2/5
f 242/2/5 241/2/5 243/2/5
f 242/1/5 243/1/5 244/1/5
f 243/2/5 241/2/5 245/2/5
f 244/1/5 243/1/5 245/1/5
f 244/2/5 245/2/5 246/2/5
f 245/2/5 241/2/5 247/2/5
f 246/2/5 245/2/5 247/2/5
f 247/2/5 241/2/5 248/2/5
f 248/2/5 241/2/5 249/2/5
f 247/2/5 248/2/5 250/2/5
f 250/2/5 248/2/5 251/2/5
f 252/2/5 253/2/5 254/2/5
f 254/2/5 253/2/5 255/2/5
f 258/2/6 257/2/6 256/2/6
f 259/2/6 257/2/6 258/2/6
f 266/3/6 261/3/6 260/3/6
f 267/4/6 262/4/6 261/4/6
f 267/3/6 261/3/6 266/3/6
f 268/4/6 262/4/6 267/4/6
f 269/3/6 263/3/6 262/3/6
f 270/3/6 263/3/6 269/3/6
f 271/4/6 264/4/6 263/4/6
f 271/3/6 263/3/6 270/3/6
f 272/3/6 265/3/6 264/3/6
f 272/4/6 264/4/6 271/4/6
f 273/3/6 265/3/6 272/3/6
f 274/4/6 267/4/6 266/4/6
f 274/3/6 268/3/6 267/3/6
f 275/4/6 262/4/6 268/4/6
f 275/3/6 268/3/6 274/3/6
f 276/4/6 273/4/6 272/4/6
f 276/3/6 272/3/6 271/3/6
f 277/4/6 273/4/6 276/4/6
f 278/3/6 276/3/6 271/3/6
f 278/3/6 277/3/6 276/3/6
f 279/3/6 277/3/6 278/3/6
f 280/4/6 274/4/6 266/4/6
f 281/5/6 275/5/6 274/5/6
f 281/4/6 274/4/6 280/4/6
f 282/4/6 262/4/6 275/4/6
f 282/3/6 269/3/6 262/3/6
f 283/4/6 270/4/6 269/4/6
f 283/3/6 269/3/6 282/3/6
f 284/5/6 271/5/6 270/5/6
f 284/4/6 270/4/6 283/4/6
f 285/3/6 278/3/6 271/3/6
f 285/5/6 271/5/6 284/5/6
f 286/4/6 282/4/6 275/4/6
f 286/5/6 275/5/6 281/5/6
f 287/5/6 283/5/6 282/5/6
f 287/4/6 282/4/6 286/4/6
f 288/3/6 278/3/6 285/3/6
f 288/3/6 285/3/6 284/3/6
f 289/4/6 279/4/6 278/4/6
f 289/3/6 278/3/6 288/3/6
f 290/3/6 281/3/6 280/3/6
f 291/5/6 286/5/6 281/5/6
f 291/3/6 281/3/6 290/3/6
f 292/3/6 287/3/6 286/3/6
f 292/5/6 286/5/6 291/5/6
f 293/5/6 283/5/6 287/5/6
f 293/3/6 287/3/6 292/3/6
f 294/4/6 284/4/6 283/4/6
f 294/3/6 288/3/6 284/3/6
f 295/4/6 289/4/6 288/4/6
f 295/3/6 288/3/6 294/3/6
f 296/4/6 291/4/6 290/4/6
f 297/3/6 292/3/6 291/3/6
f 297/4/6 291/4/6 296/4/6
f 298/4/6 293/4/6 292/4/6
f 298/3/6 292/3/6 297/3/6
f 299/5/6 283/5/6 293/5/6
f 299/4/6 293/4/6 298/4/6
f 300/4/6 294/4/6 283/4/6
f 300/5/6 283/5/6 299/5/6
f 301/5/6 295/5/6 294/5/6
f 301/4/6 294/4/6 300/4/6
f 302/4/6 289/4/6 295/4/6
f 302/5/6 295/5/6 301/5/6
f 303/4/6 279/4/6 289/4/6
f 303/4/6 289/4/6 302/4/6
f 304/4/6 279/4/6 303/4/6
f 305/3/6 297/3/6 296/3/6
f 306/4/6 298/4/6 297/4/6
f 306/3/6 297/3/6 305/3/6
f 306/4/6 299/4/6 298/4/6
f 307/3/6 301/3/6 300/3/6
f 307/4/6 299/4/6 306/4/6
f 307/3/6 300/3/6 299/3/6
f 308/4/6 302/4/6 301/4/6
f 308/3/6 301/3/6 307/3/6
f 308/4/6 303/4/6 302/4/6
f 309/3/6 304/3/6 303/3/6
f 309/4/6 303/4/6 308/4/6
f 310/3/6 304/3/6 309/3/6
